<svg xmlns="http://www.w3.org/2000/svg" fill="none" viewBox="0 0 15 21" id="maps">
<path fill-rule="evenodd" clip-rule="evenodd" d="M5.94 1.187c-2.26.565-4.095 2.372-4.713 4.657-.206.764-.279 1.744-.19 2.478C1.32 10.634 3.01 14.044 6 17.953l-.794.607C2.189 14.617.36 11.03.045 8.443c-.106-.868-.022-1.978.217-2.86C.972 2.953 3.082.87 5.697.217 6.047.13 6.32.085 6.973.01c.258-.03 1.311.018 1.682.076 2.602.407 4.847 2.22 5.815 4.697a7.572 7.572 0 0 1 .34 4.475c-.551 2.507-2.302 5.755-5.015 9.303l-.794-.607c2.68-3.505 4.328-6.615 4.833-8.911a6.573 6.573 0 0 0-.295-3.896c-.84-2.149-2.792-3.721-5.039-4.073a9.164 9.164 0 0 0-.773-.06A12.484 12.484 0 0 0 7.285 1c-.12 0-.18.002-.194.003h-.003m.862 19.806c.21-.192 1.128-1.311 1.845-2.249l-.794-.607c-.351.459-.753.964-1.091 1.377-.156.19-.296.357-.41.49a28.83 28.83 0 0 1-.41-.49c-.338-.413-.74-.918-1.09-1.377l-.795.607c.716.938 1.634 2.057 1.845 2.249.278.255.622.255.9 0ZM5.981 4.1a3.6 3.6 0 0 1 1.992-.294c.998.138 1.862.63 2.47 1.408.3.384.582.937.705 1.38.108.391.15 1.176.084 1.601-.243 1.569-1.492 2.867-3.043 3.163a4.93 4.93 0 0 1-1.378 0c-1.551-.296-2.8-1.594-3.043-3.163-.065-.425-.024-1.21.084-1.6.302-1.091 1.12-2.05 2.13-2.495Zm-3.2 4.248a5.286 5.286 0 0 1-.035-1.018 4.98 4.98 0 0 1 .142-1.002l.964.267-.964-.267c.38-1.372 1.398-2.573 2.69-3.143.82-.361 1.66-.49 2.532-.37 1.25.173 2.35.796 3.12 1.783a5.35 5.35 0 0 1 .882 1.73c.082.297.125.674.142 1.002.017.33.014.71-.034 1.018-.306 1.983-1.874 3.617-3.844 3.992-.26.05-.593.066-.876.066-.283 0-.616-.016-.876-.066-1.97-.375-3.538-2.008-3.844-3.992" fill="#fff"></path>
</svg>
