<svg style="display: none;" aria-hidden="true" xmlns="http://www.w3.org/2000/svg" xmlns:xlink="http://www.w3.org/1999/xlink"><symbol viewBox="0 0 13 8" id="arrow-up"><path d="M1 7L7 1M11.4142 7L5.41421 1" stroke-width="2"/></symbol><symbol viewBox="0 0 19 22" id="avatar"><path fill-rule="evenodd" clip-rule="evenodd" d="M8.68423 0.0408353C7.62451 0.213953 6.8606 0.567155 6.19094 1.1936C5.11231 2.20263 4.6726 3.48589 4.67609 5.61449C4.67941 7.61538 5.12799 9.17374 6.02292 10.2932C6.9158 11.4101 8.40816 11.9786 10.006 11.8105C11.1514 11.6899 11.985 11.2996 12.7164 10.5413C13.4006 9.83197 13.8719 8.86174 14.1172 7.65749C14.3501 6.5147 14.3613 4.75703 14.1427 3.68568C13.7483 1.75321 12.438 0.452145 10.5186 0.0871577C10.028 -0.00613221 9.1132 -0.0292289 8.68423 0.0408353ZM10.5186 1.35244C11.954 1.72788 12.7726 2.73368 12.9909 4.39066C13.0753 5.03053 13.0639 6.4347 12.9698 7.01233C12.8348 7.84054 12.6897 8.3106 12.3914 8.88509C11.7562 10.1083 10.7495 10.6591 9.27383 10.591C8.34593 10.5481 7.8072 10.3262 7.22113 9.74543C6.47714 9.00815 6.10639 8.05723 5.94929 6.48343C5.88771 5.86657 5.92317 4.66529 6.01869 4.13062C6.30331 2.5376 7.212 1.56913 8.68423 1.28952C9.13429 1.20406 10.0746 1.23631 10.5186 1.35244ZM6.04022 11.8873C5.95711 11.9308 5.70235 12.0791 5.47415 12.2167C4.71557 12.6742 3.62712 13.1637 2.7041 13.4623C1.65058 13.8032 1.39238 13.9339 0.995336 14.3271C0.29602 15.0197 0.00606486 15.9587 0.000125132 17.5499C-0.00428599 18.7244 0.107914 19.4397 0.338996 19.7101C0.481593 19.877 1.5055 20.3882 2.37327 20.7257C7.32735 22.6525 13.6369 22.3739 18.172 20.028C18.635 19.7886 18.7672 19.6401 18.8535 19.2628C18.9548 18.82 19.0243 17.7887 18.992 17.2058C18.92 15.9056 18.6693 15.1054 18.1362 14.4745C17.7499 14.0174 17.3302 13.7907 16.2621 13.4624C15.3603 13.1852 14.3827 12.7414 13.4666 12.1936C13.0625 11.9519 12.822 11.835 12.7023 11.8221C12.2386 11.7722 11.8892 12.2652 12.0912 12.6845C12.2878 13.0924 14.3745 14.1653 15.8687 14.6267C16.217 14.7342 16.6046 14.8719 16.73 14.9326C17.1689 15.1452 17.4958 15.6272 17.6471 16.2851C17.705 16.5368 17.72 16.8203 17.7187 17.6359C17.7177 18.2037 17.6982 18.7242 17.6753 18.7926C17.6443 18.8856 17.5623 18.9534 17.3517 19.0605C15.6343 19.9344 13.2845 20.5443 10.9771 20.7151C10.1192 20.7786 8.01317 20.741 7.26481 20.6489C5.18215 20.3925 3.23571 19.8489 1.72535 19.1019L1.33071 18.9067L1.29516 18.7014C1.27559 18.5885 1.26083 18.0703 1.26236 17.5499C1.26551 16.497 1.31446 16.1689 1.53878 15.6968C1.7848 15.1791 2.11013 14.9249 2.76634 14.7377C3.4867 14.5321 4.27184 14.2203 5.10292 13.8095C6.19496 13.2699 6.7446 12.9248 6.87444 12.6973C7.17008 12.1793 6.57864 11.605 6.04022 11.8873Z"/></symbol><symbol viewBox="0 0 32 34" id="calendar"><path fill-rule="evenodd" clip-rule="evenodd" d="M6.83569 0.695297V1.39059H3.41784H0V15.5746V29.7587H6.16693H12.3338L12.3157 28.3507L12.2975 26.9427L7.52261 26.9249L2.74768 26.9071V19.1202V11.3333H15.0452H27.3428V15.5746V19.816H28.7166H30.0904L30.0903 12.8456C30.0902 9.01188 30.0703 4.86617 30.046 3.63292L30.0018 1.39059H26.6282H23.2547V0.695297V0H21.8809H20.5071V0.695297V1.39059H18.4631H16.4191V0.695297V0H15.0452H13.6714V0.695297V1.39059H11.6274H9.58337V0.695297V0H8.20953H6.83569V0.695297ZM6.83569 4.93661V5.6319H8.20953H9.58337V4.93661V4.24131H11.6274H13.6714V4.93661V5.6319H15.0452H16.4191V4.93661V4.24131H18.4631H20.5071V4.93661V5.6319H21.8809H23.2547V4.93661V4.24131H25.2987H27.3428V6.36196V8.48262H15.0452H2.74768V6.36196V4.24131H4.79168H6.83569V4.93661ZM6.85103 15.592L6.8692 17L8.22628 17.0188L9.58337 17.0376V15.6109V14.184H8.20812H6.83294L6.85103 15.592ZM12.331 15.6109V17.0376L13.6881 17.0188L15.0452 17L15.0634 15.592L15.0815 14.184H13.7063H12.331V15.6109ZM17.7747 15.592L17.7929 17L19.15 17.0188L20.5071 17.0376V15.6109V14.184H19.1318H17.7566L17.7747 15.592ZM18.8652 22.3885L14.5095 26.908H16.1344H17.7594V30.454V34H23.2547H28.7501V30.454V26.908H30.3751H32L27.6443 22.3885C25.2487 19.9029 23.2734 17.8691 23.2547 17.8691C23.2361 17.8691 21.2608 19.9029 18.8652 22.3885ZM6.83569 21.2413V22.6667H8.20953H9.58337V21.2413V19.816H8.20953H6.83569V21.2413ZM12.331 21.2398V22.6667H13.7063H15.0815L15.0634 21.2587L15.0452 19.8507L13.6881 19.8319L12.331 19.8131V21.2398ZM24.2944 24.0416C23.7226 24.0522 22.785 24.0522 22.2108 24.0416L21.1668 24.0225L22.1881 22.9221L23.2094 21.8217L24.2718 22.9221L25.3341 24.0225L24.2944 24.0416ZM25.9689 29.0634V31.184H23.2547H20.5406L20.5228 29.1338C20.513 28.0061 20.5197 27.0436 20.5377 26.9949C20.5636 26.9249 21.1334 26.9102 23.2697 26.9246L25.9689 26.9427V29.0634Z"/><defs><linearGradient id="cpaint0_linear_0_103" x1="7.489" y1="26.766" x2="40.279" y2="1.943" gradientUnits="userSpaceOnUse"><stop stop-color="#63AFCD"/><stop offset="1" stop-color="#FF374F"/></linearGradient></defs></symbol><symbol viewBox="0 0 18 14" id="check-mark"><path d="M0.707031 7.29297L6.70703 13.293M5.29282 13.293L17.2928 1.29297" stroke-width="2"/></symbol><symbol viewBox="0 0 30 31" id="chip"><path fill-rule="evenodd" clip-rule="evenodd" d="M10.9953 0.97504C10.4753 1.24072 10.4564 1.93242 10.96 2.26426C11.0989 2.35577 11.3172 2.37624 12.43 2.40219C13.1488 2.41894 13.7738 2.45653 13.8189 2.48577C14.0518 2.63668 14.0705 2.863 14.0705 5.5377V8.12882H13.0697H12.0689V6.63021C12.0689 4.98246 12.0425 4.83576 11.7099 4.63838C11.463 4.49186 11.092 4.50459 10.8871 4.66652C10.5798 4.90929 10.5526 5.07122 10.5526 6.66079V8.12096L9.08179 8.14015C6.99333 8.16732 7.09541 8.06162 7.09541 10.1971V11.6623H5.63392C4.38994 11.6623 4.14751 11.6771 4.00455 11.7619C3.5237 12.0472 3.5237 12.7395 4.00455 13.0247C4.14751 13.1096 4.38994 13.1244 5.63392 13.1244H7.09541V14.1272V15.1301L4.34948 15.1477L1.60349 15.1653L1.1987 15.3655C0.71038 15.6071 0.358291 15.9857 0.175302 16.4661C0.0649143 16.756 0.0394401 16.9792 0.0137234 17.8836C-0.0266107 19.2994 0.0112973 19.5918 0.272528 19.878C0.448785 20.0711 0.509317 20.0992 0.739979 20.0944C1.02535 20.0884 1.29398 19.9471 1.41171 19.741C1.45999 19.6563 1.49541 19.1586 1.51536 18.2821L1.54569 16.9516L1.71588 16.8047L1.88607 16.6578H4.49074H7.09541V17.6287V18.5995L5.62458 18.6187C4.2989 18.6359 4.13702 18.6492 3.98387 18.7534C3.51969 19.0695 3.53837 19.7159 4.02026 20.011C4.1984 20.1201 4.33317 20.1299 5.65491 20.1301L7.09541 20.1304V21.5335C7.09541 23.6735 6.98927 23.5616 9.05771 23.6029L10.5829 23.6334L10.6133 25.1767L10.6436 26.7201L10.8402 26.8965C11.1868 27.2073 11.4954 27.2073 11.842 26.8965L12.0386 26.7201L12.0689 25.1767L12.0993 23.6334L13.0849 23.6166L14.0705 23.5998V26.1876C14.0705 28.8378 14.0963 29.2016 14.3156 29.6372C14.4797 29.9632 14.9095 30.365 15.2835 30.5422C15.608 30.6959 15.6555 30.7008 17.0226 30.7195C18.5875 30.7409 18.6993 30.719 18.9251 30.347C19.0676 30.1123 19.0748 29.931 18.952 29.6711C18.7672 29.2799 18.6182 29.2417 17.145 29.2077L15.8222 29.1772L15.7059 29.0249C15.5953 28.8802 15.5894 28.7404 15.5881 26.2378L15.5868 23.6029H16.5572H17.5277L17.528 24.9584C17.5282 25.704 17.5563 26.415 17.5905 26.5385C17.6617 26.796 17.9275 27.0469 18.1906 27.1049C18.4342 27.1587 18.7669 26.9935 18.9217 26.7419C19.0354 26.557 19.044 26.4407 19.044 25.0731V23.6029H20.5027C22.6201 23.6029 22.5012 23.7206 22.5012 21.6251V20.1304H24.0195C25.7128 20.1304 25.8663 20.1022 26.0781 19.7533C26.2337 19.497 26.2337 19.2407 26.0781 18.9844C25.8663 18.6355 25.7128 18.6073 24.0195 18.6073H22.5012V17.6038V16.6003L25.3974 16.5834L28.2935 16.5665L28.6271 16.4073C29.2659 16.1025 29.671 15.5322 29.7783 14.7866C29.845 14.3228 29.8596 12.6719 29.8001 12.3101C29.7423 11.9587 29.424 11.6623 29.1045 11.6623C28.8114 11.6623 28.5594 11.7983 28.4231 12.0302C28.3401 12.1713 28.3239 12.3994 28.3239 13.4262C28.3239 14.7621 28.2907 14.9253 27.992 15.062C27.8764 15.1149 27.1047 15.1348 25.1671 15.1348H22.5012V14.1324V13.13L24.1377 13.112L25.7743 13.0939L25.9619 12.9055C26.2136 12.6524 26.265 12.2978 26.0906 12.0166C25.8548 11.6364 25.8415 11.6338 24.0933 11.6121L22.5012 11.5924L22.501 10.1499C22.5007 8.04998 22.5797 8.12882 20.4724 8.12882H19.044L19.0436 6.71239C19.0434 5.93339 19.0154 5.19489 18.9812 5.07141C18.8107 4.45482 17.9994 4.33468 17.6457 4.87359C17.5376 5.03833 17.5285 5.1726 17.5281 6.59055L17.5277 8.12882H16.5287H15.5296L15.5127 5.28073L15.4958 2.43265L15.335 2.08814C15.1351 1.65974 14.7492 1.27459 14.3131 1.06813C13.9885 0.914483 13.942 0.909793 12.5845 0.893039C11.3924 0.878357 11.1612 0.890298 10.9953 0.97504ZM20.9849 15.8963V22.1408H14.7983H8.61173V15.8963V9.65186H14.7983H20.9849V15.8963ZM10.7527 11.538C10.3565 11.7806 10.3706 11.6191 10.3711 15.9085C10.3714 19.6479 10.3759 19.8021 10.4887 19.974C10.7161 20.3204 10.5638 20.3086 14.8418 20.311L18.7973 20.3131L19.0117 20.0979L19.226 19.8826V15.9189C19.226 12.2922 19.2172 11.9403 19.1225 11.7792C18.9057 11.4107 19.001 11.4186 14.7891 11.4188C11.0853 11.419 10.9399 11.4233 10.7527 11.538ZM17.7703 15.8963V18.851H14.7983H11.8263V15.8963V12.9416H14.7983H17.7703V15.8963Z"/></symbol><symbol viewBox="0 0 26 32" id="confirm"><path fill-rule="evenodd" clip-rule="evenodd" d="M6.5 0.655738V1.31148H3.25H0V16.6557V32H13H26V16.6557V1.31148H22.75H19.5V0.655738V0H13H6.5V0.655738ZM16.8772 3.60105C16.8556 4.56636 16.8529 4.58289 16.6642 4.85751C16.5591 5.01062 16.3583 5.19751 16.2181 5.27285C15.9702 5.40603 15.8815 5.40984 13 5.40984C10.1185 5.40984 10.0298 5.40603 9.78186 5.27285C9.64167 5.19751 9.44093 5.01062 9.33578 4.85751C9.14709 4.58289 9.14435 4.56636 9.12281 3.60105L9.10108 2.62295H13H16.8989L16.8772 3.60105ZM6.555 4.48761C6.69577 5.46177 7.09978 6.26472 7.77081 6.904C8.2311 7.34249 8.57178 7.5501 9.21534 7.78426L9.71814 7.96721H13H16.2819L16.7847 7.78426C17.4282 7.5501 17.7689 7.34249 18.2292 6.904C18.9002 6.26472 19.3042 5.46177 19.445 4.48761L19.5155 4H21.4514H23.3873V16.6885V29.377H13H2.61275V16.6885V4H4.5486H6.48452L6.555 4.48761ZM14.5292 15.9019C12.6544 17.8313 11.092 19.4098 11.0571 19.4098C11.0222 19.4098 10.3335 18.7311 9.52677 17.9014L8.05994 16.3931L7.15274 17.3283L6.24561 18.2634L8.65125 20.7382L11.0569 23.213L15.4062 18.7371L19.7555 14.2612L18.8466 13.3277L17.9377 12.394L14.5292 15.9019Z"/><defs><linearGradient id="fpaint0_linear_0_87" x1="6.085" y1="25.192" x2="35.452" y2="5.999" gradientUnits="userSpaceOnUse"><stop stop-color="#63AFCD"/><stop offset="1" stop-color="#FF374F"/></linearGradient></defs></symbol><symbol viewBox="0 0 28 27" id="cross"><path d="M2.12132 1.93945L26.1213 25.9395M26 1.93945L2 25.9395" stroke-width="3"/></symbol><symbol viewBox="0 0 32 34" id="document"><path fill-rule="evenodd" clip-rule="evenodd" d="M8.57607 0.318093C6.46216 0.471417 4.66093 1.29755 3.23138 2.76949C2.24025 3.79001 1.59309 4.91474 1.20129 6.29772L1 7.00802V16.6665V26.325L1.20129 27.0353C2.06058 30.068 4.44506 32.2704 7.54831 32.8974C8.13357 33.0157 8.75847 33.0253 15.8649 33.0253C24.1226 33.0253 23.9816 33.0309 25.2003 32.6523C27.6054 31.905 29.6009 29.9711 30.4132 27.6004C30.8437 26.344 30.8375 26.4829 30.8375 18.1897V10.6078L26.7263 6.31062C24.4651 3.94711 22.2493 1.62958 21.8022 1.16055L20.9894 0.307686L14.9443 0.3012C11.6195 0.297565 8.7538 0.305192 8.57607 0.318093ZM19.3664 3.9608C19.3978 5.07761 19.4335 5.40949 19.5839 5.97973C20.2202 8.39193 21.7211 10.2362 23.9277 11.3173C25.0482 11.8662 25.9872 12.0868 27.4803 12.1519L28.5395 12.198V18.771C28.5395 24.2977 28.5224 25.4417 28.4317 25.958C28.0876 27.9165 26.8479 29.4788 25.0212 30.256C23.9308 30.7198 24.1552 30.7087 15.9008 30.7087C7.6464 30.7087 7.87081 30.7198 6.78043 30.256C5.10845 29.5447 3.98835 28.2594 3.45745 26.4431L3.29795 25.8973V16.6665V7.4357L3.46377 6.86546C4.0073 4.99578 5.28188 3.61238 7.06803 2.95368C7.90916 2.64347 8.06793 2.63591 13.8268 2.62992L19.3289 2.62429L19.3664 3.9608ZM25.0054 7.82774C26.1317 9.00622 26.8378 9.79715 26.7759 9.8109C26.5986 9.85053 25.5133 9.54716 25.031 9.32313C23.2272 8.4853 21.9318 6.69589 21.6779 4.69142L21.6282 4.29938L22.3802 5.08346C22.7937 5.5147 23.9751 6.74963 25.0054 7.82774ZM10.0482 10.3729C9.9692 10.3924 9.79951 10.4869 9.67111 10.583C9.01936 11.0705 9.07709 11.9637 9.79125 12.4414L10.0335 12.6035H15.9008H21.768L22.0103 12.4414C22.3738 12.1983 22.5792 11.8528 22.5792 11.4846C22.5792 11.089 22.4362 10.8123 22.1002 10.5579L21.8365 10.3582L16.0141 10.3479C12.8118 10.3422 10.1272 10.3534 10.0482 10.3729ZM9.94055 15.6054C9.84181 15.6449 9.68526 15.7474 9.59255 15.8332C9.03817 16.347 9.10819 17.1515 9.74824 17.6222C9.95017 17.7707 9.97631 17.7713 15.9008 17.7713C21.8253 17.7713 21.8514 17.7707 22.0534 17.6222C22.7584 17.1036 22.7584 16.2294 22.0534 15.7108C21.8519 15.5626 21.8131 15.5616 15.9853 15.5477C12.1865 15.5387 10.0567 15.559 9.94055 15.6054ZM9.78673 20.8833C9.29202 21.168 9.074 21.8773 9.33001 22.3688C9.38918 22.4824 9.55636 22.6652 9.70142 22.7751L9.96518 22.9748H15.9008H21.8364L22.1077 22.7694C22.7745 22.2645 22.7282 21.3717 22.0103 20.8915L21.768 20.7295L15.9081 20.7311C10.0769 20.7327 10.0469 20.7334 9.78673 20.8833Z" stroke-width=".5"/></symbol><symbol viewBox="0 0 31 31" id="floor-plans"><path fill-rule="evenodd" clip-rule="evenodd" d="M4.19898 0.937482C2.43843 1.17072 1.01274 2.39423 0.480694 4.12863C0.336857 4.59733 0.329282 5.18289 0.329282 15.807C0.329282 27.9377 0.305817 27.307 0.793974 28.3069C1.27382 29.2901 2.12713 30.0461 3.2509 30.4838L3.78731 30.6928L15.0057 30.7151C27.3634 30.7396 26.7519 30.7627 27.8072 30.2306C28.455 29.9039 29.3086 29.0527 29.6613 28.3815C30.2046 27.3476 30.1811 27.9572 30.1565 15.5812L30.1342 4.37536L29.9485 3.88849C29.4279 2.52302 28.5212 1.62256 27.1785 1.13725C26.5987 0.927695 26.5692 0.92564 23.6399 0.895786C22.0153 0.879255 20.554 0.89044 20.3927 0.920622C20.018 0.990857 18.9442 2.00515 18.8079 2.41775C18.6281 2.96211 19.0525 3.51182 19.6526 3.51182C19.9275 3.51182 20.0408 3.45038 20.411 3.10061L20.8463 2.6894H23.5729C26.1247 2.6894 26.3285 2.70026 26.753 2.8589C27.3297 3.07446 27.8953 3.61775 28.1844 4.2339L28.4051 4.70433L28.4293 9.82389L28.4533 14.9434H22.6412C17.8162 14.9434 16.7913 14.963 16.6067 15.0588C16.4844 15.1222 16.1343 15.4331 15.8286 15.7498C15.3551 16.2404 15.2729 16.3688 15.2729 16.6176C15.2729 17.0273 15.4135 17.2896 15.7223 17.4557C16.1299 17.675 16.4801 17.5692 16.9613 17.0812L17.3662 16.6705H18.5014H19.6366V18.9961C19.6366 21.0182 19.6543 21.3483 19.7722 21.525C19.9924 21.8555 20.6446 22.5063 20.9385 22.6889C21.4515 23.0078 22.128 22.7119 22.2392 22.1202C22.3063 21.7629 22.1989 21.5321 21.7349 21.0366L21.3626 20.639L21.3847 18.6753L21.4068 16.7117H24.906H28.4051V21.8125V26.9134L28.1358 27.4596C27.8274 28.0854 27.455 28.4465 26.8034 28.7518L26.3468 28.9657H23.8768H21.4068L21.3656 26.5529L21.3244 24.1401L21.0934 23.9417C20.6955 23.6 20.0387 23.7055 19.7737 24.1537C19.6545 24.3552 19.6366 24.688 19.6366 26.6969V29.0083L15.2523 28.987L10.868 28.9657L10.8269 26.5529L10.7857 24.1401L10.5547 23.9417C10.1567 23.6 9.49996 23.7055 9.23493 24.1537C9.11579 24.3552 9.09784 24.6884 9.09784 26.7026V29.0195L6.60724 28.9926L4.11664 28.9657L3.64569 28.7452C3.02885 28.4564 2.48495 27.8915 2.26915 27.3154C2.10448 26.8758 2.09946 26.7113 2.09946 21.7664V16.6705H5.59865H9.09784V18.9812C9.09784 20.9894 9.11579 21.3221 9.23493 21.5236C9.49996 21.9718 10.1567 22.0774 10.5547 21.7356L10.7857 21.5373L10.8269 19.1245L10.868 16.7117L12.35 16.6696C13.1651 16.6465 13.8922 16.5981 13.9658 16.562C14.0393 16.5259 14.1649 16.375 14.2449 16.2265C14.4311 15.8813 14.36 15.4538 14.0714 15.1828C13.8665 14.9903 13.8162 14.9838 12.3436 14.9589L10.8269 14.9333V12.6315C10.8269 10.7928 10.8031 10.2839 10.7087 10.1015C10.5271 9.75061 9.55175 8.87992 9.27157 8.8184C8.71137 8.69553 8.11173 9.29129 8.23432 9.84897C8.2638 9.98294 8.47013 10.2918 8.69284 10.5352L9.09784 10.9777V12.9606V14.9434H5.59865H2.09946V9.89503C2.09946 3.99409 2.06488 4.27922 2.87801 3.46708C3.63433 2.71161 3.74276 2.6894 6.67846 2.6894H9.09784V4.95517C9.09784 7.49562 9.12172 7.62145 9.64553 7.84005C10.0054 7.99022 10.4135 7.88002 10.6609 7.56577C10.8185 7.36568 10.8269 7.23647 10.8269 5.02219V2.6894H13.9637C17.4547 2.6894 17.5296 2.67896 17.7777 2.15664C17.8491 2.00622 17.9076 1.83894 17.9076 1.78474C17.9076 1.73054 17.8491 1.56326 17.7777 1.41284C17.5141 0.858036 17.793 0.878762 10.7733 0.892414C7.29325 0.899158 4.33483 0.919471 4.19898 0.937482Z"/></symbol><symbol viewBox="0 0 33 31" id="forest"><path fill-rule="evenodd" clip-rule="evenodd" d="M5.96008 1.04176C5.33366 1.14838 4.69375 1.50522 4.24368 1.99896C3.7296 2.56294 3.4772 3.2118 3.4772 3.96925C3.4772 4.36096 3.50409 4.47977 3.66426 4.79598C3.78992 5.04393 3.9421 5.23357 4.12765 5.37334C4.59661 5.72647 4.81347 5.75986 6.63996 5.75986H8.26679L8.4154 5.61322C8.60488 5.42639 8.60488 5.19738 8.4154 5.01054L8.26679 4.8639H6.68756C4.97855 4.8639 4.8538 4.84472 4.56724 4.53812C4.43099 4.39232 4.41609 4.32733 4.41827 3.88831C4.42015 3.50358 4.45012 3.34093 4.56022 3.11879C4.78035 2.67445 5.13503 2.32126 5.57638 2.10701C5.9235 1.93845 6.03571 1.9139 6.4664 1.91217C7.07343 1.90972 7.46948 2.07051 7.98065 2.5271C8.36653 2.87187 8.49509 2.89773 8.86825 2.70587C9.40776 2.42848 10.012 2.50619 10.481 2.91332C10.7614 3.15684 10.9826 3.52968 10.9851 3.76341C10.9858 3.83157 11.0477 3.94416 11.1226 4.01357C11.2503 4.13183 11.3348 4.14097 12.4604 4.15841C13.6483 4.17675 13.6632 4.1786 13.7806 4.32172C13.855 4.41251 13.8925 4.53496 13.8811 4.65024L13.8629 4.83403L11.7834 4.8639L9.70383 4.89376L9.58816 5.03479C9.43077 5.22653 9.44282 5.43738 9.62111 5.61322L9.76972 5.75986H11.9782H14.1867L14.3816 5.59805C14.9111 5.15861 14.945 4.22292 14.4501 3.70858C14.0919 3.33633 13.8983 3.28407 12.796 3.26173L11.7897 3.24136L11.6454 2.93661C11.1934 1.98187 10.0086 1.44985 8.93765 1.72067L8.5542 1.81761L8.29713 1.60987C7.693 1.12157 6.78639 0.901217 5.96008 1.04176ZM20.7723 3.08785C20.307 3.35031 20.282 3.40891 18.8345 7.62849C18.0819 9.82247 17.4661 11.6582 17.4661 11.7078C17.4661 11.8607 17.7495 12.0914 17.9372 12.0914C18.1855 12.0914 18.3338 11.8985 18.5232 11.3298C18.6134 11.0588 18.6955 10.837 18.7056 10.837C18.7158 10.837 18.8804 11.0255 19.0715 11.2558C19.6789 11.9881 19.8084 11.9475 20.5905 10.7798C20.9204 10.287 21.204 9.88382 21.2207 9.88382C21.2373 9.88382 21.5643 10.4892 21.9474 11.2291C22.3304 11.9692 22.6925 12.6271 22.7521 12.6914C22.903 12.8539 23.2241 12.845 23.3839 12.6737C23.4528 12.5999 23.6798 12.2034 23.8881 11.7927C24.0964 11.3821 24.2784 11.0792 24.2927 11.1195C24.3068 11.16 24.8434 12.6161 25.4851 14.3555L26.6518 17.5179L26.1466 18.3723C25.8687 18.8422 25.6414 19.2889 25.6414 19.3651C25.6414 19.5021 25.8843 19.7967 25.9974 19.7967C26.0297 19.7967 25.7178 20.3679 25.3043 21.066C24.8909 21.7641 24.5523 22.3808 24.552 22.4364C24.5517 22.4921 24.6149 22.6105 24.6925 22.6995C24.8061 22.8298 24.899 22.8667 25.1689 22.8887L25.5041 22.9161L24.7205 24.2379C24.2895 24.9649 23.9222 25.632 23.9043 25.7205C23.8799 25.8407 23.911 25.92 24.0271 26.0346L24.1825 26.1879H25.3359H26.4892V26.7276C26.4892 27.2347 26.4824 27.2637 26.3769 27.208C26.3151 27.1753 26.0898 27.1211 25.8763 27.0874C25.1113 26.9669 24.3419 27.2031 23.7441 27.742C23.431 28.0243 23.0938 28.5546 23.0137 28.8907L22.9746 29.055H19.6834H16.3923L16.2587 28.6936C15.8578 27.6091 14.6391 26.9052 13.477 27.0869C12.9712 27.166 12.5283 27.3636 12.1986 27.6575L11.9416 27.8865L11.7971 27.7208L11.6525 27.555V25.7366V23.9181H13.7374H15.8222L15.9477 23.7607C16.0168 23.6742 16.0733 23.5575 16.0733 23.5014C16.0733 23.4453 15.4845 22.3821 14.7649 21.1386C14.0453 19.8951 13.4429 18.8426 13.4261 18.7996C13.4023 18.7385 13.5282 18.7215 14.005 18.7215C14.34 18.7215 14.6805 18.6916 14.7618 18.6552C14.9361 18.5768 15.0623 18.3355 15.0115 18.1777C14.9916 18.116 14.6366 17.4807 14.2225 16.7659C13.8084 16.0511 13.4716 15.4258 13.474 15.3766C13.4764 15.3273 13.6213 15.0585 13.7961 14.7793C14.0949 14.3018 14.1263 14.2715 14.3214 14.2715C14.5107 14.2715 14.5512 14.3057 14.7806 14.6598C15.1506 15.2308 15.346 15.4417 15.618 15.5636C16.0355 15.7507 16.5042 15.6893 16.906 15.3951C17.1537 15.2137 17.2454 15.0376 17.5355 14.1857C17.7956 13.422 17.822 13.1727 17.6581 13.0265C17.515 12.8986 17.1429 12.8979 17.0344 13.0252C16.9888 13.0789 16.8287 13.4751 16.6788 13.9057C16.4355 14.6048 16.3882 14.6948 16.2366 14.7466C15.996 14.8288 15.907 14.7544 15.5691 14.1889C15.2006 13.572 14.9477 13.3904 14.4103 13.3566C13.8298 13.3202 13.5097 13.5158 13.1236 14.1427L12.9084 14.492L12.7357 14.2026C12.6407 14.0434 12.5625 13.893 12.5619 13.8684C12.5614 13.8438 12.6711 13.8236 12.8059 13.8236C13.1255 13.8236 13.3781 13.598 13.3291 13.3563C13.2825 13.1264 10.4624 8.26558 10.2821 8.10431C10.1137 7.95367 9.91845 7.93449 9.76021 8.053C9.6394 8.14343 6.62621 13.2133 6.62621 13.3261C6.62621 13.6122 6.89618 13.8236 7.26159 13.8236H7.46742L7.09748 14.454L6.72759 15.0845L6.44405 14.5884C6.28818 14.3156 6.10281 14.0319 6.0322 13.958C5.87414 13.7925 5.53568 13.7764 5.40276 13.9281C5.31126 14.0325 3.46127 17.1449 3.22503 17.5919C3.11833 17.7939 3.11082 17.8533 3.1732 18.0019C3.2165 18.1049 3.32568 18.2076 3.44183 18.2544L3.6375 18.3333L2.77085 19.7967C2.29414 20.6015 1.90384 21.3169 1.90342 21.3864C1.90299 21.4559 1.95919 21.5836 2.02823 21.6701C2.1422 21.8131 2.19216 21.8275 2.57325 21.8275C2.80398 21.8275 2.99273 21.8485 2.99273 21.8741C2.99273 21.8997 2.59499 22.5918 2.10883 23.4122C1.62273 24.2325 1.19907 24.9691 1.16746 25.0491C1.09127 25.2416 1.19919 25.4949 1.39491 25.5828C1.49156 25.6263 2.00764 25.6503 2.84419 25.6503H4.14334V26.0983C4.14334 26.6255 4.24786 26.7852 4.5931 26.7852C4.91733 26.7852 5.05171 26.5723 5.05171 26.0583V25.6463L5.7027 25.6632L6.3537 25.6802L6.37036 26.6953L6.38707 27.7104L6.20037 28.0732C6.09772 28.2727 5.97951 28.5685 5.93773 28.7305L5.86173 29.0251L5.45672 29.0428L5.05171 29.0604V28.5581C5.05171 27.9473 4.93592 27.7409 4.5931 27.7409C4.22666 27.7409 4.14334 27.8904 4.14334 28.5473V29.1147H2.69437H1.24533L1.11986 29.2721C0.963376 29.4683 0.960106 29.6571 1.11011 29.8398L1.22583 29.9808L16.3859 29.9964C27.1274 30.0075 31.5921 29.9932 31.7045 29.9476C31.8573 29.8856 32 29.673 32 29.5075C32 29.4637 31.7411 28.7253 31.4247 27.8666C31.1083 27.0079 30.8494 26.2954 30.8494 26.2832C30.8494 26.271 31.0382 26.2506 31.2689 26.2377C31.5696 26.221 31.7239 26.1826 31.8139 26.1022C32.0585 25.8839 31.9893 25.6896 31.1559 24.2531L30.3724 22.9027H30.7018C31.1435 22.9027 31.3224 22.7354 31.2766 22.3651C31.2705 22.3158 30.9517 21.7305 30.5682 21.0645L29.871 19.8534L30.0574 19.6816C30.1599 19.5871 30.2438 19.4499 30.2438 19.3768C30.2438 19.1957 28.4589 16.1059 28.2321 15.8943C27.9438 15.6255 27.6701 15.7483 27.3774 16.2779C27.2864 16.4425 27.2567 16.4618 27.2131 16.3849C27.156 16.2842 26.3076 13.9755 26.3076 13.9207C26.3076 13.9028 27.1778 13.8802 28.2415 13.8707L30.1754 13.8534L30.36 13.679C30.6301 13.4237 30.7477 13.0699 30.7176 12.6039C30.6857 12.1097 30.4629 11.7783 30.0015 11.5388C29.6942 11.3794 29.6565 11.3746 28.7078 11.3743L27.7307 11.3742L27.6154 11.0977C27.4582 10.7208 26.9056 10.1809 26.4589 9.96792C26.1296 9.81083 26.0336 9.7941 25.4317 9.78861L24.7679 9.78251L23.6299 6.68647C22.9749 4.90416 22.4286 3.50836 22.3425 3.39702C22.0096 2.9666 21.2517 2.81739 20.7723 3.08785ZM21.5962 3.92875C21.641 3.97283 22.1628 5.32646 22.7559 6.93663L23.8342 9.86435L23.4457 10.6289L23.0572 11.3934L22.3358 10.0251C21.321 8.10061 21.3279 8.10204 20.3033 9.60231L19.6584 10.5465L19.3543 10.1758L19.0502 9.80509L20.0448 6.9073C20.5918 5.31349 21.07 3.97325 21.1072 3.92899C21.1945 3.82523 21.4911 3.82511 21.5962 3.92875ZM11.0735 11.1655L12.0766 12.8977L11.7957 12.9312C11.4876 12.968 11.2892 13.1407 11.2892 13.372C11.2892 13.4449 11.8475 14.47 12.5298 15.6501L13.7704 17.7957L13.0395 17.8255C12.2404 17.8582 12.137 17.9063 12.137 18.2455C12.137 18.3418 12.636 19.2655 13.4137 20.6084C14.1158 21.821 14.7165 22.8604 14.7484 22.9182C14.8035 23.018 14.6592 23.0225 11.9157 23.0078L9.02497 22.9923L8.71013 22.4547L8.39523 21.9171L8.82174 21.8828C9.29464 21.8447 9.47274 21.7173 9.47207 21.4177C9.47189 21.3251 9.1229 20.6572 8.62662 19.7992L7.78148 18.3385L7.95607 18.2661C8.14131 18.1892 8.26146 18.0231 8.26104 17.8444C8.26091 17.7847 8.03249 17.3418 7.7535 16.8602L7.24621 15.9844L7.7905 15.0682C8.70226 13.5336 8.74974 13.4347 8.67586 13.2255C8.59677 13.0017 8.46324 12.9276 8.13907 12.9276C8.00088 12.9276 7.8969 12.9059 7.90804 12.8793C8.0231 12.6039 9.99457 9.35723 10.027 9.38972C10.0508 9.41373 10.5217 10.2128 11.0735 11.1655ZM26.1195 10.8152C26.4982 11.0013 26.7555 11.3219 26.8886 11.7734C27.0326 12.262 27.0587 12.2706 28.3997 12.2706C29.5413 12.2706 29.5584 12.2725 29.6926 12.4134C29.7902 12.5159 29.8231 12.6128 29.8091 12.7568L29.7896 12.9575L27.8722 12.9732L25.9549 12.989L25.8583 12.7343C25.3995 11.5248 25.1175 10.7167 25.1446 10.6899C25.2415 10.5943 25.822 10.669 26.1195 10.8152ZM6.37284 16.2792C6.71644 16.8735 6.98896 17.365 6.97842 17.3715C6.96788 17.3779 6.88377 17.4153 6.79154 17.4543C6.6029 17.5343 6.48215 17.7797 6.54125 17.9632C6.56281 18.0302 6.94499 18.7107 7.39058 19.4754C7.83616 20.2401 8.20072 20.894 8.20072 20.9285C8.20072 20.9663 8.03564 20.9913 7.7862 20.9913C7.31688 20.9913 7.15107 21.0982 7.15107 21.4006C7.15107 21.5089 7.47929 22.1357 8.06555 23.147L8.9801 24.7245L7.35327 24.7404C6.45847 24.7491 4.97462 24.7491 4.05571 24.7404L2.38504 24.7245L3.32326 23.1416C3.87979 22.2026 4.26203 21.4946 4.26294 21.4011C4.26379 21.3144 4.21322 21.1811 4.1506 21.1048C4.0551 20.9885 3.96687 20.9623 3.60286 20.942C3.36426 20.9286 3.17701 20.8985 3.18682 20.8751C3.19663 20.8515 3.57942 20.1999 4.03736 19.4268C4.87863 18.0068 4.96426 17.7963 4.79427 17.567C4.75261 17.5108 4.64554 17.4452 4.55634 17.4212L4.39411 17.3776L5.03548 16.2875C5.38817 15.6879 5.69283 15.1977 5.71245 15.1981C5.73207 15.1985 6.02923 15.685 6.37284 16.2792ZM28.7899 19.0206C28.6857 19.1167 28.6088 19.2486 28.6088 19.3315C28.6088 19.4107 28.9336 20.0383 29.3307 20.7262L30.0528 21.9769L29.7395 21.9954C29.3677 22.0175 29.1538 22.1783 29.1538 22.4358C29.1538 22.5433 29.4403 23.0996 29.939 23.9605C30.3709 24.7059 30.7182 25.3217 30.711 25.329C30.7036 25.3361 29.4523 25.3241 27.9303 25.3021L25.163 25.2621L25.9447 23.948C26.7462 22.6007 26.826 22.3961 26.6456 22.1528C26.5825 22.0676 26.4622 22.0291 26.1894 22.007L25.8189 21.9769L26.5477 20.7401C27.3909 19.3091 27.4296 19.1512 26.9956 18.9116C26.9154 18.8674 26.9274 18.8189 27.0811 18.5668C27.1794 18.4055 27.416 18.0087 27.6069 17.685L27.9539 17.0964L28.4625 17.9751L28.9711 18.8537L28.7899 19.0206ZM10.7442 25.3218C10.7442 26.0938 10.7328 26.7255 10.7189 26.7255C10.705 26.7255 10.5619 26.6689 10.401 26.5996C10.24 26.5304 9.91754 26.4414 9.68439 26.4017L9.26048 26.3297L9.24232 25.99L9.22415 25.6503H9.61644C9.96804 25.6503 10.0216 25.634 10.1342 25.4929C10.2032 25.4064 10.2597 25.2919 10.2597 25.2387C10.2597 25.1854 10.1098 24.8794 9.92662 24.5587C9.74343 24.2379 9.59355 23.9626 9.59355 23.9468C9.59355 23.931 9.85244 23.9181 10.1689 23.9181H10.7442V25.3218ZM8.32184 26.0339V26.4176L8.09474 26.4901C7.96987 26.53 7.73818 26.6266 7.58 26.7048L7.29235 26.847V26.2486V25.6503H7.80709H8.32184V26.0339ZM28.4271 27.6214V29.055H28.223C28.0332 29.055 28.0137 29.0365 27.9435 28.7894C27.902 28.6433 27.7631 28.3678 27.6346 28.1772L27.401 27.8305L27.3993 27.049C27.3984 26.6192 27.4158 26.2496 27.438 26.2277C27.4602 26.2058 27.6918 26.1879 27.9527 26.1879H28.4271V27.6214ZM30.3768 27.6513L30.8931 29.055H30.1143H29.3355V27.6513V26.2476H29.598H29.8605L30.3768 27.6513ZM10.1514 27.4889C10.7277 27.769 11.1805 28.2983 11.3762 28.9206L11.4185 29.055H9.11315C7.309 29.055 6.80801 29.0387 6.80849 28.9803C6.80989 28.8014 7.12781 28.2553 7.39397 27.9746C7.66127 27.6928 8.07258 27.4347 8.44295 27.3164C8.52622 27.2898 8.85396 27.2736 9.17128 27.2805C9.68718 27.2916 9.79091 27.3137 10.1514 27.4889ZM14.187 27.9835C14.6033 28.0716 15.0122 28.3446 15.2262 28.6776C15.3257 28.8323 15.4071 28.9805 15.4071 29.007C15.4071 29.0334 14.7122 29.055 13.8629 29.055C12.825 29.055 12.3187 29.0344 12.3187 28.9923C12.3187 28.8711 12.492 28.6051 12.692 28.4196C12.9943 28.139 13.2913 28.012 13.8448 27.9267C13.8681 27.923 14.0221 27.9487 14.187 27.9835ZM26.1864 28.1073C26.5161 28.2495 26.8222 28.5286 26.9802 28.831L27.0973 29.055H25.5215C24.2391 29.055 23.9458 29.04 23.9458 28.9744C23.9458 28.8331 24.2996 28.4059 24.5542 28.2397C25.0588 27.9103 25.6237 27.8645 26.1864 28.1073Z" stroke-width=".5"/></symbol><symbol viewBox="0 0 31 31" id="heating"><path fill-rule="evenodd" clip-rule="evenodd" d="M7.76176 6.26716C3.52029 9.7289 0.027933 12.5817 0.000966013 12.6068C-0.0445016 12.649 1.52968 14.6262 1.63379 14.6578C1.6595 14.6655 2.07567 14.349 2.55857 13.9544L3.43656 13.2369L3.45243 22.1184L3.46836 31H15.509H27.5497L27.5656 22.1159L27.5814 13.2319L28.4594 13.9511C28.9423 14.3467 29.3585 14.6644 29.3842 14.657C29.4099 14.6496 29.7991 14.1953 30.2489 13.6474C30.9041 12.8496 31.0508 12.6363 30.9861 12.5762C30.759 12.3653 15.6043 0.0230765 15.5441 5.86637e-05C15.5053 -0.0148279 12.0033 2.80542 7.76176 6.26716ZM20.1988 7.20977L24.8534 11.0033V19.6882V28.373H15.509H6.16462V19.6905V11.008L10.8204 7.21208C13.3812 5.12434 15.4916 3.41614 15.5103 3.41614C15.5289 3.41614 17.6388 5.12328 20.1988 7.20977ZM11.4953 11.1702C11.4953 11.4405 11.2927 11.9339 11.0394 12.2804C10.4929 13.0283 10.241 13.7656 10.1952 14.7512C10.1414 15.9109 10.3695 16.7385 10.9952 17.6541C11.1776 17.9211 11.3647 18.2652 11.4111 18.4187C11.5999 19.0445 11.4696 19.6952 11.0345 20.2993C10.555 20.965 10.2576 21.7505 10.1979 22.5091L10.1598 22.9938H11.4831H12.8066L12.8461 22.7592C12.9168 22.339 13.0017 22.1371 13.2638 21.765C13.8826 20.8869 14.1516 20.0557 14.1516 19.022C14.1516 18.0241 13.9166 17.2233 13.3977 16.453C13.2372 16.2147 13.0566 15.9071 12.9966 15.7695C12.7159 15.1264 12.8142 14.4223 13.2803 13.7366C13.8115 12.9554 14.1046 12.1578 14.1422 11.3911L14.1607 11.0158L12.828 10.9989L11.4953 10.982V11.1702ZM18.1736 13.9399C18.1165 14.2924 17.9594 14.6431 17.6893 15.0214C17.1135 15.8279 16.8653 16.6281 16.8653 17.6772C16.8653 18.7526 17.0969 19.4776 17.7396 20.4141C18.0808 20.9113 18.17 21.1737 18.17 21.6803C18.17 22.1869 18.0808 22.4493 17.7396 22.9465C17.2121 23.715 16.9634 24.3774 16.8585 25.2925L16.8137 25.6834H18.1682H19.5227V25.5384C19.5227 25.2537 19.7127 24.763 19.9524 24.4284C20.5717 23.5638 20.8397 22.7337 20.8397 21.6803C20.8397 20.6759 20.5826 19.8372 20.0247 19.022C19.7222 18.5799 19.5846 18.2504 19.545 17.8733C19.4915 17.3621 19.6119 16.9248 19.9362 16.4522C20.5067 15.6212 20.8397 14.7203 20.8397 14.0081V13.6741H19.5282H18.2167L18.1736 13.9399Z"/><defs><linearGradient id="kpaint0_linear_0_99" x1="7.255" y1="24.404" x2="37.596" y2="0" gradientUnits="userSpaceOnUse"><stop stop-color="#63AFCD"/><stop offset="1" stop-color="#FF374F"/></linearGradient></defs></symbol><symbol viewBox="0 0 34 34" id="home"><path fill-rule="evenodd" clip-rule="evenodd" d="M15.6548 0.482321C15.4491 0.56831 15.1752 0.712331 15.046 0.802296C14.9168 0.892261 11.6779 4.10464 7.84831 7.94094C2.22909 13.57 0.853239 14.9808 0.718537 15.2516C0.101485 16.4924 0.306293 17.8538 1.25254 18.8006C1.84005 19.3885 2.5902 19.6932 3.44993 19.6932H3.88505V24.8199C3.88505 28.2906 3.90774 30.0563 3.95535 30.2864C4.19726 31.4556 5.14255 32.5117 6.30802 32.9146C6.73314 33.0617 6.76287 33.0629 9.85602 33.0629C12.9065 33.0629 12.9792 33.06 13.1523 32.9307C13.2496 32.858 13.3888 32.7188 13.4614 32.6215C13.591 32.4479 13.5942 32.3617 13.6256 28.1637L13.6577 23.883L13.8522 23.5675C14.0946 23.1744 14.5897 22.86 15.0584 22.8018C15.2396 22.7793 16.1377 22.7703 17.054 22.782L18.7202 22.8032L19.0569 22.9898C19.3778 23.1678 19.585 23.3797 19.7836 23.733C19.8575 23.8645 19.8794 24.6587 19.9057 28.1689C19.9371 32.3617 19.9403 32.4479 20.0699 32.6215C20.1426 32.7188 20.2817 32.858 20.379 32.9307C20.5521 33.06 20.6248 33.0629 23.6753 33.0629C26.7684 33.0629 26.7982 33.0617 27.2233 32.9146C28.3888 32.5117 29.3341 31.4556 29.576 30.2864C29.6236 30.0563 29.6463 28.2906 29.6463 24.8199V19.6932H30.0814C31.2865 19.6932 32.3368 19.0502 32.8549 17.9953C33.0724 17.5524 33.0747 17.5387 33.0747 16.6794C33.0747 15.217 33.8115 16.0853 25.5855 7.85399C17.4062 -0.330505 18.2256 0.372606 16.8316 0.342981C16.1034 0.327463 15.9939 0.340416 15.6548 0.482321ZM17.2421 2.31426C17.4188 2.40025 19.6908 4.63327 24.3043 9.2556C29.8519 14.8137 31.1206 16.116 31.1846 16.3182C31.3384 16.8034 31.1338 17.3601 30.7066 17.6191C30.5445 17.7174 30.33 17.7429 29.4425 17.7695C28.2791 17.8044 28.1965 17.8295 27.888 18.243C27.7574 18.418 27.7554 18.4871 27.7238 24.2346L27.6917 30.0491L27.5141 30.3515C27.4164 30.5178 27.2414 30.7265 27.1252 30.8151C26.6791 31.1556 26.5461 31.1713 24.095 31.1713H21.8282V27.5835C21.8282 25.2295 21.804 23.8789 21.7579 23.6559C21.509 22.4529 20.5373 21.4126 19.2969 21.0211C18.8726 20.8872 18.7356 20.8795 16.7657 20.8795C14.9264 20.8795 14.6384 20.8933 14.3018 20.9971C13.028 21.3905 12.1265 22.3072 11.7977 23.5435C11.7216 23.8295 11.7045 24.5567 11.7039 27.5323L11.7031 31.1713H9.43627C6.98518 31.1713 6.85227 31.1556 6.40613 30.8151C6.28995 30.7265 6.11494 30.5178 6.01721 30.3515L5.83957 30.0491L5.80753 24.2346C5.77587 18.4872 5.77395 18.418 5.64335 18.243C5.33479 17.8295 5.25225 17.8044 4.08883 17.7695C2.85101 17.7324 2.6537 17.6616 2.4157 17.1698C2.25774 16.8432 2.24761 16.5685 2.38155 16.2445C2.51413 15.9238 15.9132 2.49957 16.285 2.3149C16.6101 2.15356 16.9112 2.15337 17.2421 2.31426Z"/></symbol><symbol viewBox="0 0 20 14" id="mail"><path fill-rule="evenodd" clip-rule="evenodd" d="M1.41154 0.0382839C0.74104 0.1694 0.171072 0.748668 0.0411277 1.43109C-0.0137092 1.71891 -0.0137092 12.2758 0.0411277 12.5636C0.174158 13.2622 0.74065 13.8263 1.44212 13.9588C1.73287 14.0137 18.2671 14.0137 18.5579 13.9588C19.2593 13.8263 19.8258 13.2622 19.9589 12.5636C20.0137 12.2758 20.0137 1.71891 19.9589 1.43109C19.8258 0.732527 19.2593 0.168389 18.5579 0.0359114C18.2964 -0.0134857 1.6644 -0.011191 1.41154 0.0382839ZM14.5502 4.57154C12.2146 6.88495 11.0443 8.01747 10.8983 8.10561C10.3519 8.43544 9.64809 8.43544 9.10167 8.10561C8.95568 8.01747 7.78543 6.88495 5.44979 4.57154L2.01272 1.16714H10H17.9873L14.5502 4.57154ZM4.70754 5.47795L6.23059 6.9974L4.31696 8.90576C3.26444 9.95535 2.12649 11.0776 1.78814 11.3995L1.17298 11.985V6.99721V2.00946L2.17871 2.98398C2.73185 3.51996 3.86983 4.64225 4.70754 5.47795ZM18.8175 9.49639L18.8075 11.9954L16.2883 9.49557L13.7691 6.99577L16.2883 4.50075L18.8075 2.00573L18.8175 4.50156C18.8231 5.87426 18.8231 8.1219 18.8175 9.49639ZM7.48153 8.24427C8.18835 8.9536 8.59787 9.23598 9.17979 9.41529C9.42499 9.49086 9.55865 9.50557 10 9.50557C10.6005 9.50557 10.9137 9.43275 11.367 9.18791C11.7028 9.00654 11.8801 8.86208 12.4493 8.30634L12.9262 7.84073L13.8944 8.77787C14.4269 9.29328 15.5656 10.4163 16.4248 11.2733L17.9869 12.8317L9.9998 12.83L2.01272 12.8282L4.5249 10.3406C5.90664 8.97247 7.04939 7.85306 7.06439 7.85306C7.07939 7.85306 7.2671 8.0291 7.48153 8.24427Z"/></symbol><symbol viewBox="0 0 15 21" id="maps-and-flags"><path fill-rule="evenodd" clip-rule="evenodd" d="M5.94 1.187c-2.26.565-4.095 2.372-4.713 4.657-.206.764-.279 1.744-.19 2.478C1.32 10.634 3.01 14.044 6 17.953l-.794.607C2.189 14.617.36 11.03.045 8.443c-.106-.868-.022-1.978.217-2.86C.972 2.953 3.082.87 5.697.217 6.047.13 6.32.085 6.973.01c.258-.03 1.311.018 1.682.076 2.602.407 4.847 2.22 5.815 4.697a7.572 7.572 0 0 1 .34 4.475c-.551 2.507-2.302 5.755-5.015 9.303l-.794-.607c2.68-3.505 4.328-6.615 4.833-8.911a6.573 6.573 0 0 0-.295-3.896c-.84-2.149-2.792-3.721-5.039-4.073a9.164 9.164 0 0 0-.773-.06A12.484 12.484 0 0 0 7.285 1c-.12 0-.18.002-.194.003h-.003m.862 19.806c.21-.192 1.128-1.311 1.845-2.249l-.794-.607c-.351.459-.753.964-1.091 1.377-.156.19-.296.357-.41.49a28.83 28.83 0 0 1-.41-.49c-.338-.413-.74-.918-1.09-1.377l-.795.607c.716.938 1.634 2.057 1.845 2.249.278.255.622.255.9 0ZM5.981 4.1a3.6 3.6 0 0 1 1.992-.294c.998.138 1.862.63 2.47 1.408.3.384.582.937.705 1.38.108.391.15 1.176.084 1.601-.243 1.569-1.492 2.867-3.043 3.163a4.93 4.93 0 0 1-1.378 0c-1.551-.296-2.8-1.594-3.043-3.163-.065-.425-.024-1.21.084-1.6.302-1.091 1.12-2.05 2.13-2.495Zm-3.2 4.248a5.286 5.286 0 0 1-.035-1.018 4.98 4.98 0 0 1 .142-1.002l.964.267-.964-.267c.38-1.372 1.398-2.573 2.69-3.143.82-.361 1.66-.49 2.532-.37 1.25.173 2.35.796 3.12 1.783a5.35 5.35 0 0 1 .882 1.73c.082.297.125.674.142 1.002.017.33.014.71-.034 1.018-.306 1.983-1.874 3.617-3.844 3.992-.26.05-.593.066-.876.066-.283 0-.616-.016-.876-.066-1.97-.375-3.538-2.008-3.844-3.992"/></symbol><symbol viewBox="0 0 13 19" id="mouse"><path fill-rule="evenodd" clip-rule="evenodd" d="M5.36577 0.0876263C2.66613 0.576436 0.548138 2.75661 0.0848054 5.52361C0.00580202 5.99547 0 6.26685 0 9.50152C0 12.7362 0.00580202 13.0076 0.0848054 13.4794C0.535966 16.1738 2.51262 18.2757 5.161 18.8774C5.78954 19.0203 6.89593 19.0416 7.56879 18.9238C10.3212 18.4423 12.4466 16.2779 12.9152 13.4794C12.9942 13.0076 13 12.7362 13 9.50152C13 6.26685 12.9942 5.99547 12.9152 5.52361C12.4485 2.73702 10.3216 0.561533 7.59719 0.0842352C6.94881 -0.0293669 6.00395 -0.0278944 5.36577 0.0876263ZM7.43687 1.98678C8.29832 2.1699 9.03696 2.56541 9.6799 3.18781C10.1246 3.61835 10.3938 3.99494 10.6683 4.57103C10.9256 5.11075 11.0596 5.57627 11.1246 6.15503C11.18 6.64937 11.18 12.3537 11.1246 12.848C11.0395 13.6065 10.7612 14.3909 10.3537 15.0208C10.1446 15.3439 9.65185 15.8789 9.33557 16.126C7.94959 17.2089 6.10699 17.416 4.55009 16.6639C4.02223 16.4089 3.7122 16.1949 3.32067 15.8152C2.77825 15.2892 2.44365 14.7826 2.16707 14.0684C1.84945 13.2482 1.85403 13.315 1.85403 9.50152C1.85403 5.68804 1.84945 5.75483 2.16707 4.93459C2.52039 4.02225 3.15158 3.20789 3.89581 2.70422C4.4833 2.30661 5.27752 2.00445 5.96984 1.91512C6.33667 1.86778 7.03845 1.90205 7.43687 1.98678ZM6.15101 3.8613C5.95383 3.94867 5.77183 4.12684 5.66713 4.33499C5.58965 4.48915 5.58389 4.61458 5.58389 6.15467C5.58389 7.54677 5.59458 7.83501 5.65142 7.97409C5.95928 8.72776 7.04072 8.72776 7.34858 7.97409C7.40542 7.83501 7.41611 7.54677 7.41611 6.15467C7.41611 4.61458 7.41035 4.48915 7.33287 4.33499C7.10319 3.87835 6.5831 3.66988 6.15101 3.8613Z"/></symbol><symbol viewBox="0 0 22 22" id="phone"><path id="pfree-icon-phone-8500068 1 (Traced)" fill-rule="evenodd" clip-rule="evenodd" d="M4.51825 0.0281177C2.48193 0.350388 0.749062 1.8616 0.187724 3.80475C-0.0325383 4.56726 -0.0558709 5.37728 0.101428 6.80195C0.803417 13.1595 5.0081 18.5949 10.9996 20.8901C12.6025 21.5042 14.2461 21.854 16.1012 21.976C17.3592 22.0587 18.104 21.9346 19.0204 21.4896C20.6256 20.7102 21.7384 19.1794 21.9714 17.4302C22.0648 16.7292 21.922 15.7102 21.6539 15.1637C21.4013 14.6487 20.8772 14.1893 20.3502 14.0207C20.0918 13.9381 15.2195 13.1835 14.9444 13.1835C14.4258 13.1835 13.855 13.4377 13.4226 13.861C13.2753 14.0053 13.1159 14.1794 13.0685 14.2479L12.9822 14.3726L12.4863 14.1239C10.5337 13.1442 9.02381 11.6488 8.05603 9.73608C7.90244 9.43247 7.76371 9.14132 7.74777 9.08905C7.72395 9.01107 7.78089 8.93239 8.06385 8.65195C8.54899 8.17119 8.77226 7.66547 8.7706 7.05114C8.77025 6.92608 8.57411 5.65348 8.33471 4.22309C7.91874 1.73764 7.89244 1.60821 7.74174 1.30282C7.44086 0.693026 6.9167 0.291773 6.1888 0.113963C5.7665 0.0108088 4.90686 -0.0333815 4.51825 0.0281177ZM5.75606 1.16644C6.24561 1.24586 6.57126 1.45003 6.74521 1.78651C6.82884 1.94832 7.63329 6.72515 7.63438 7.06657C7.63556 7.42997 7.47883 7.71023 7.1097 8.00488C6.65646 8.36662 6.54281 8.57476 6.54281 9.04306C6.54281 9.24981 6.57611 9.37827 6.7026 9.65941C7.68157 11.8354 9.41098 13.7063 11.5458 14.8988C12.2496 15.292 12.6883 15.4695 12.9658 15.4735C13.4206 15.48 13.6445 15.3362 14.1333 14.7239C14.3248 14.4839 14.6634 14.32 14.9674 14.32C15.2979 14.32 19.8546 15.0428 20.0562 15.1272C20.287 15.2238 20.5573 15.4805 20.676 15.7159C20.8421 16.0451 20.889 16.3543 20.8633 16.9495C20.8349 17.6037 20.7104 18.0742 20.3966 18.7128C20.0474 19.4233 19.4085 20.0426 18.62 20.4345C17.8964 20.7941 17.3224 20.9017 16.337 20.8626C11.5023 20.6706 6.92059 18.168 4.06492 14.1595C2.5046 11.9694 1.52039 9.39331 1.21204 6.69268C1.1323 5.99394 1.10766 4.92572 1.16372 4.59462C1.44598 2.92702 2.7572 1.5402 4.38065 1.19223C4.7445 1.11425 5.36307 1.10267 5.75606 1.16644ZM12.9003 2.07569C12.5794 2.21901 12.5016 2.72954 12.7612 2.98917C12.8576 3.08564 12.9319 3.10277 13.4961 3.15876C13.8413 3.19303 14.281 3.25986 14.4733 3.30733C16.9376 3.91559 18.6942 6.0286 18.8497 8.5717C18.8701 8.90416 18.9002 9.06658 18.9595 9.16418C19.1663 9.50442 19.749 9.48278 19.9107 9.12887C19.9891 8.95731 19.9705 8.28903 19.8712 7.70761C19.6318 6.3072 18.9907 5.08543 17.9499 4.04655C16.9511 3.04958 15.8522 2.45277 14.4831 2.16381C14.0387 2.07001 13.0378 2.01428 12.9003 2.07569ZM11.912 5.55636C11.6928 5.67556 11.5944 6.03332 11.7161 6.26878C11.8332 6.49524 11.9338 6.54695 12.3411 6.59013C12.9001 6.64936 13.1985 6.73311 13.6617 6.9607C14.6346 7.43871 15.3306 8.48118 15.4008 9.56561C15.4387 10.1505 15.6164 10.3637 16.0368 10.3287C16.2791 10.3085 16.4331 10.189 16.5075 9.96367C16.6107 9.65067 16.4275 8.64068 16.1607 8.052C15.6943 7.02308 14.7423 6.12769 13.7166 5.75323C13.0375 5.50531 12.1783 5.41159 11.912 5.55636Z"/></symbol><symbol viewBox="0 0 32 32" id="snow"><path fill-rule="evenodd" clip-rule="evenodd" d="M15.1414 0.0332784C11.3941 0.398299 8.18867 2.99721 7.10459 6.54941C6.99464 6.90972 6.86977 7.3998 6.82713 7.63845L6.74955 8.07245L6.3832 8.15054C4.827 8.48222 3.4482 9.23807 2.32134 10.3773C0.308068 12.4126 -0.448773 15.2179 0.260255 18.0172C0.611105 19.4024 1.29318 20.5735 2.37831 21.6535C3.368 22.6385 4.19294 23.1506 5.4907 23.5855C5.86118 23.7097 6.20778 23.8113 6.26095 23.8113C6.33428 23.8113 6.42042 23.4968 6.61756 22.5087L6.87749 21.2061L6.47988 21.0971C5.094 20.717 3.8447 19.6663 3.20324 18.3412C2.77161 17.4495 2.68494 17.0563 2.68357 15.9828C2.68252 15.2196 2.70751 14.9784 2.83218 14.5454C3.25419 13.0794 4.28137 11.8483 5.62446 11.1987C6.50944 10.7707 6.83269 10.7023 8.15904 10.6624L9.32004 10.6275V9.86421C9.32004 7.73842 9.80262 6.31961 11.012 4.88972C11.4191 4.40849 12.2545 3.75306 12.869 3.43291C16.8786 1.34361 21.6787 3.66135 22.5404 8.10285C22.6642 8.74098 22.6369 9.9691 22.477 10.9506C22.3996 11.4256 22.3363 11.8456 22.3363 11.8841C22.3363 11.931 22.719 11.954 23.499 11.954C24.1385 11.954 24.9063 11.9847 25.2053 12.0222C28.0123 12.3747 29.8686 15.0865 29.1723 17.8171C29.1172 18.0333 28.95 18.4599 28.8008 18.7652C28.5816 19.2133 28.4149 19.4355 27.9348 19.9189C27.4471 20.4099 27.24 20.5664 26.7841 20.7886C26.3158 21.0169 26.0558 21.1018 25.2426 21.2922C25.195 21.3034 25.2183 21.7178 25.316 22.5952C25.3947 23.3028 25.4703 23.8913 25.4839 23.9028C25.5502 23.9591 26.7573 23.6683 27.2911 23.4675C30.327 22.3254 32.2981 19.142 31.963 15.9224C31.7734 14.1007 31.0158 12.5601 29.6889 11.298C28.592 10.2547 27.4607 9.68485 25.9338 9.40669L25.3124 9.29349L25.272 8.64206C25.1352 6.43602 24.1903 4.37704 22.5666 2.7467C21.4534 1.62897 20.2818 0.910325 18.8043 0.438981C17.6958 0.0853588 16.2502 -0.0747474 15.1414 0.0332784ZM14.6835 13.9848V14.6399H13.9967H13.31V15.9828V17.3258H13.9967H14.6835V18.0815V18.8372L14.3916 18.9625C14.231 19.0315 13.9444 19.1926 13.7547 19.3205C13.565 19.4484 13.3835 19.5531 13.3513 19.5531C13.2518 19.5531 12.1326 18.8915 12.1326 18.8328C12.1326 18.8022 12.2798 18.5221 12.4596 18.2102C12.6395 17.8982 12.7867 17.6341 12.7867 17.6233C12.7867 17.5867 10.5777 16.3431 10.5127 16.3431C10.4772 16.3431 10.2965 16.6066 10.111 16.9285L9.77365 17.5139L9.2146 17.1906C8.90718 17.0127 8.63273 16.8672 8.60467 16.8672C8.57661 16.8672 8.25872 17.3798 7.89813 18.0063L7.2426 19.1455L7.7906 19.4535C8.09193 19.6229 8.35553 19.7891 8.37633 19.8228C8.39713 19.8565 8.28155 20.1117 8.11953 20.3901C7.85031 20.8526 7.83442 20.9034 7.93475 20.9817C8.07322 21.0896 10.075 22.239 10.1246 22.239C10.1447 22.239 10.2827 22.0187 10.4311 21.7493C10.5796 21.4799 10.7231 21.2459 10.7499 21.2293C10.7767 21.2127 11.0693 21.352 11.4 21.5389L12.0015 21.8787L12.0016 22.6447L12.0018 23.4105L11.3841 23.7747C11.0443 23.975 10.7507 24.1388 10.7317 24.1388C10.7127 24.1388 10.5614 23.9032 10.3956 23.6153C10.2297 23.3273 10.0717 23.0778 10.0444 23.0609C10.0037 23.0357 8.44756 23.8939 7.89387 24.2469L7.74324 24.3429L7.98649 24.7813C8.12032 25.0225 8.26978 25.282 8.31864 25.3581C8.40314 25.4896 8.37875 25.513 7.82127 25.8353L7.23502 26.1741L7.863 27.2691C8.20836 27.8714 8.51336 28.3899 8.54076 28.4214C8.5681 28.4529 8.84838 28.3288 9.16345 28.1457L9.73643 27.8127L10.0231 28.3178C10.1808 28.5955 10.336 28.8494 10.3679 28.882C10.4316 28.9469 12.6559 27.7001 12.6559 27.5995C12.6559 27.5664 12.52 27.3033 12.3539 27.0149C12.1878 26.7265 12.0627 26.4801 12.076 26.4672C12.0891 26.4543 12.3866 26.2782 12.7369 26.0758L13.3739 25.7079L13.6872 25.9224C13.8594 26.0404 14.155 26.2087 14.344 26.2964L14.6875 26.4559L14.6691 27.2135L14.6508 27.9711L13.9804 27.9898L13.31 28.0085V29.3141V30.6197L13.9804 30.6384L14.6508 30.657L14.6695 31.3285L14.6881 32H15.9917H17.2953L17.3139 31.3285L17.3326 30.657L18.003 30.6384L18.6734 30.6197V29.3141V28.0085L18.003 27.9898L17.3326 27.9711L17.3142 27.2071L17.2958 26.4431L17.6593 26.2765C17.8592 26.1848 18.1513 26.0174 18.3084 25.9044C18.6328 25.671 18.5361 25.6474 19.4373 26.1804L19.9722 26.4966L19.6742 27.0235C19.5103 27.3133 19.3873 27.5601 19.4009 27.5721C19.469 27.6319 21.6358 28.8555 21.6736 28.8555C21.6977 28.8555 21.8108 28.6861 21.925 28.4788C22.3114 27.7777 22.243 27.8009 22.8608 28.1604C23.2829 28.4061 23.4127 28.4553 23.4568 28.3865C23.6848 28.0309 24.691 26.2421 24.691 26.1924C24.691 26.1582 24.4711 26.0048 24.2022 25.8516C23.9333 25.6984 23.6994 25.5504 23.6824 25.5228C23.6653 25.4953 23.797 25.2174 23.975 24.9055C24.153 24.5935 24.2986 24.3103 24.2986 24.2762C24.2986 24.2421 23.8791 23.9723 23.3665 23.6766C22.8539 23.381 22.344 23.0849 22.2336 23.0185L22.0328 22.8979L21.6799 23.5205C21.4859 23.8629 21.2953 24.1347 21.2564 24.1245C21.2176 24.1144 20.9074 23.9463 20.5673 23.7511L19.9489 23.3961L19.9543 22.6513L19.9596 21.9065L20.6216 21.5235L21.2836 21.1404L21.5999 21.6976C21.7739 22.004 21.9394 22.2551 21.9677 22.2555C22.0384 22.2565 24.2332 20.9911 24.2332 20.9494C24.2332 20.931 24.0874 20.6678 23.9092 20.3646L23.5852 19.8133L24.1079 19.5092C24.3954 19.3419 24.645 19.1816 24.6626 19.1531C24.698 19.0958 23.4417 16.873 23.3719 16.8694C23.3479 16.8682 23.1042 16.9999 22.8304 17.162C22.5566 17.3242 22.3096 17.4568 22.2816 17.4568C22.2535 17.4568 22.087 17.2081 21.9116 16.9041C21.6198 16.3983 21.5813 16.3575 21.4576 16.4232C21.3111 16.501 19.3013 17.66 19.2847 17.6762C19.2791 17.6816 19.421 17.9335 19.6 18.236C19.867 18.6873 19.9099 18.8005 19.839 18.8676C19.7915 18.9126 19.4901 19.0983 19.169 19.2803L18.5854 19.6112L18.3904 19.4469C18.2832 19.3565 17.9939 19.181 17.7477 19.0568L17.2999 18.8309V18.0783V17.3258H17.9867H18.6734V15.9828V14.6399H17.9867H17.2999V13.9848V13.3297H15.9917H14.6835V13.9848ZM16.5007 21.4236C16.8114 21.5536 17.0803 21.8099 17.2473 22.1354C17.444 22.5184 17.3929 23.1244 17.1327 23.4952C16.5782 24.2855 15.4058 24.2873 14.8529 23.4987C14.5905 23.1242 14.5386 22.5199 14.7361 22.1354C15.0873 21.4511 15.8404 21.1474 16.5007 21.4236Z"/><defs><linearGradient id="qpaint0_linear_0_83" x1="7.489" y1="25.192" x2="38.809" y2="0" gradientUnits="userSpaceOnUse"><stop stop-color="#63AFCD"/><stop offset="1" stop-color="#FF374F"/></linearGradient></defs></symbol><symbol viewBox="0 0 32 31" id="soundproof"><path fill-rule="evenodd" clip-rule="evenodd" d="M23.9865 0.875149C23.9865 1.94716 23.904 2.28548 23.4345 3.14051C22.8111 4.27535 22.6428 4.98569 22.6935 6.26642C22.7366 7.35329 22.8605 7.79276 23.4295 8.87531C23.6615 9.31682 23.881 9.80656 23.9173 9.96363C24.0025 10.3323 24.002 11.1859 23.9165 11.5453C23.8499 11.825 23.7945 11.9447 23.2799 12.9221C22.8775 13.6865 22.7353 14.2352 22.6937 15.1849C22.6367 16.488 22.8241 17.2764 23.4667 18.4359C23.8399 19.1094 23.9865 19.6043 23.9865 20.1913C23.9865 20.8569 23.8774 21.2224 23.3932 22.1802C22.837 23.2802 22.7411 23.618 22.6949 24.6408C22.6371 25.9202 22.8329 26.772 23.4278 27.8289C23.5909 28.1186 23.7243 28.3726 23.7243 28.3934C23.7243 28.4142 18.3864 28.4312 11.8622 28.4312H0V29.6907V30.95L15.9746 30.9866C24.7607 31.0066 31.964 31.0039 31.9821 30.9805C32.0002 30.9571 32.0054 23.977 31.9938 15.469L31.9727 0H27.9796H23.9865V0.875149ZM12.2661 2.3372L11.3289 3.29384L11.8495 3.86506C14.0983 6.33243 15.4466 9.24676 15.8349 12.4787C15.9751 13.6461 15.9294 15.6322 15.7372 16.7224C15.1975 19.7838 13.8031 22.5731 11.749 24.7003C11.5229 24.9345 11.3379 25.1365 11.3379 25.1491C11.3379 25.1617 11.7581 25.5782 12.2718 26.0746L13.2057 26.9773L13.6211 26.546C16.1546 23.9163 17.8128 20.6351 18.4153 17.059C19.2802 11.9254 17.7546 6.55448 14.309 2.60197C14.0504 2.30528 13.6958 1.90908 13.521 1.72155L13.2033 1.38057L12.2661 2.3372ZM29.3277 15.4849V28.3995L27.9408 28.4167L26.5538 28.4337L26.4438 28.0993C26.3834 27.9154 26.1299 27.3651 25.8805 26.8764C25.3841 25.9037 25.2791 25.4806 25.3375 24.687C25.3818 24.0837 25.459 23.8501 25.8931 23.0052C26.4283 21.9638 26.5443 21.5455 26.5888 20.4957C26.6419 19.2453 26.4227 18.3194 25.8497 17.3726C25.4508 16.7135 25.3493 16.4006 25.3126 15.7169C25.2681 14.8861 25.357 14.5384 25.853 13.6043C26.4585 12.4638 26.5743 12.0067 26.5743 10.7569C26.5743 9.53272 26.4558 9.04304 25.9099 8.01222C25.5069 7.25105 25.378 6.86202 25.3366 6.2828C25.2798 5.48856 25.3852 5.06546 25.8815 4.09334C26.131 3.60468 26.3843 3.05439 26.4445 2.87041L26.5538 2.53603L27.9408 2.5531L29.3277 2.57024V15.4849ZM7.50757 6.91393L6.59497 7.79936L6.88726 8.10405C8.03488 9.30032 8.84564 10.8517 9.21893 12.5656C9.38042 13.3072 9.38074 15.0366 9.21952 15.8193C8.88614 17.438 8.08738 18.9991 7.01074 20.1361C6.78634 20.3731 6.61378 20.5789 6.62735 20.5934C6.64091 20.6078 7.06487 21.0234 7.5695 21.517L8.48702 22.4143L8.80651 22.0752C9.21481 21.6418 9.93538 20.7038 10.2373 20.2128C11.3847 18.3468 11.927 16.4359 11.9316 14.243C11.9364 11.8386 11.2805 9.71492 9.92378 7.74244C9.51628 7.15008 8.61632 6.09 8.48636 6.04926C8.44993 6.03783 8.00952 6.42699 7.50757 6.91393ZM2.82765 11.4457L1.88772 12.3576L2.12464 12.6769C2.50351 13.1877 2.6355 13.6358 2.60581 14.3108C2.57815 14.9393 2.43725 15.3358 2.09416 15.7508C1.98767 15.8797 1.90057 15.9969 1.90057 16.0113C1.90057 16.0256 2.31738 16.4424 2.8268 16.9374C3.88843 17.9689 3.7662 17.9454 4.30197 17.2199C5.31851 15.8434 5.56965 14.0979 4.98709 12.4581C4.7988 11.9281 4.36502 11.2013 3.98103 10.7723L3.76758 10.5339L2.82765 11.4457Z"/><defs><linearGradient id="rpaint0_linear_0_95" x1="7.489" y1="24.404" x2="38.022" y2="-.947" gradientUnits="userSpaceOnUse"><stop stop-color="#63AFCD"/><stop offset="1" stop-color="#FF374F"/></linearGradient></defs></symbol><symbol viewBox="0 0 32 32" id="window"><path fill-rule="evenodd" clip-rule="evenodd" d="M1.31148 14.6589V29.3178H0.655738H0V30.6164V31.9151L0.994033 31.958C2.29069 32.014 29.7093 32.014 31.006 31.958L32 31.9151V30.6164V29.3178H31.3443H30.6885V14.6589V0H16H1.31148V14.6589ZM14.6725 8.62192L14.6557 14.6262L9.37134 14.6429L4.08688 14.6597L4.04348 11.9982C4.01954 10.5344 4 7.82491 4 5.97717V2.61766H9.34459H14.6892L14.6725 8.62192ZM28.0656 8.63828V14.6589H22.7541H17.4426V8.63828V2.61766H22.7541H28.0656V8.63828ZM14.6725 23.3463L14.6557 29.2851L9.37134 29.3018L4.08695 29.3186L4.04354 26.6187C4.01967 25.1338 4.00013 22.4538 4.00007 20.6632L4 17.4075H9.34459H14.6892L14.6725 23.3463ZM28.0656 23.3626V29.3178H22.7541H17.4426V23.3626V17.4075H22.7541H28.0656V23.3626Z"/><defs><linearGradient id="spaint0_linear_0_91" x1="7.489" y1="25.192" x2="38.809" y2="0" gradientUnits="userSpaceOnUse"><stop stop-color="#63AFCD"/><stop offset="1" stop-color="#FF374F"/></linearGradient></defs></symbol></svg>